<svg xmlns="http://www.w3.org/2000/svg" xmlns:xlink="http://www.w3.org/1999/xlink" width="1080" zoomAndPan="magnify" viewBox="0 0 810 809.999993" height="1080" preserveAspectRatio="xMidYMid meet" version="1.0"><defs><clipPath id="e66b4ea337"><path d="M 405 0 C 181.324219 0 0 181.324219 0 405 C 0 628.675781 181.324219 810 405 810 C 628.675781 810 810 628.675781 810 405 C 810 181.324219 628.675781 0 405 0 Z M 405 0 " clip-rule="nonzero"/></clipPath><clipPath id="25d81cc15e"><path d="M 0 0 L 810 0 L 810 810 L 0 810 Z M 0 0 " clip-rule="nonzero"/></clipPath><clipPath id="e5c4537696"><path d="M 405 0 C 181.324219 0 0 181.324219 0 405 C 0 628.675781 181.324219 810 405 810 C 628.675781 810 810 628.675781 810 405 C 810 181.324219 628.675781 0 405 0 Z M 405 0 " clip-rule="nonzero"/></clipPath><clipPath id="6509fa4176"><rect x="0" width="810" y="0" height="810"/></clipPath><clipPath id="c1cedbe164"><path d="M 194.398438 194.398438 L 615.898438 194.398438 L 615.898438 615.898438 L 194.398438 615.898438 Z M 194.398438 194.398438 " clip-rule="nonzero"/></clipPath></defs><g clip-path="url(#e66b4ea337)"><g transform="matrix(1, 0, 0, 1, 0, 0.000000000000039746)"><g clip-path="url(#6509fa4176)"><g clip-path="url(#25d81cc15e)"><g clip-path="url(#e5c4537696)"><rect x="-178.2" width="1166.4" fill="#000000" height="1166.39999" y="-178.199998" fill-opacity="1"/></g></g></g></g></g><g clip-path="url(#c1cedbe164)"><path fill="#ffffff" d="M 615.070312 314.511719 L 615.070312 344.550781 L 525 344.550781 C 500.074219 344.550781 479.8125 364.816406 479.8125 389.742188 L 479.8125 419.753906 C 479.8125 527.460938 392.199219 615.070312 284.496094 615.070312 L 254.484375 615.070312 L 254.484375 555.015625 L 224.46875 555.015625 L 224.46875 525 L 284.523438 525 C 342.546875 525 389.769531 477.777344 389.769531 419.753906 L 389.769531 389.742188 C 389.769531 315.160156 450.449219 254.484375 525.027344 254.484375 L 525.027344 224.46875 C 433.886719 224.46875 359.730469 298.628906 359.730469 389.769531 L 359.730469 419.78125 C 359.730469 461.269531 325.984375 494.988281 284.523438 494.988281 L 194.398438 494.988281 L 194.398438 464.945312 L 284.46875 464.945312 C 309.394531 464.945312 329.660156 444.683594 329.660156 419.753906 L 329.660156 389.742188 C 329.660156 282.039062 417.296875 194.398438 525 194.398438 L 555.015625 194.398438 L 555.015625 254.457031 L 585.027344 254.457031 L 585.027344 284.46875 L 524.972656 284.46875 C 466.953125 284.46875 419.726562 331.695312 419.726562 389.714844 L 419.726562 419.726562 C 419.726562 494.308594 359.050781 554.984375 284.46875 554.984375 L 284.46875 585 C 375.609375 585 449.769531 510.84375 449.769531 419.699219 L 449.769531 389.683594 C 449.769531 348.199219 483.511719 314.480469 524.972656 314.480469 L 615.042969 314.480469 Z M 615.070312 314.511719 " fill-opacity="1" fill-rule="nonzero"/></g></svg>